<svg xmlns="http://www.w3.org/2000/svg" xmlns:xlink="http://www.w3.org/1999/xlink" width="160" zoomAndPan="magnify" viewBox="0 0 120 119.999999" height="160" preserveAspectRatio="xMidYMid meet" version="1.0"><defs><clipPath id="31638f6df8"><path d="M 1.289062 2.082031 L 118 2.082031 L 118 119 L 1.289062 119 Z M 1.289062 2.082031 " clip-rule="nonzero"/></clipPath></defs><g clip-path="url(#31638f6df8)"><path fill="#d5cebf" d="M 59.601562 2.082031 C 27.449219 2.082031 1.289062 28.242188 1.289062 60.394531 C 1.289062 92.546875 27.449219 118.707031 59.601562 118.707031 C 91.753906 118.707031 117.914062 92.546875 117.914062 60.394531 C 117.914062 28.242188 91.753906 2.082031 59.601562 2.082031 Z M 59.601562 113.414062 C 30.375 113.414062 6.582031 89.640625 6.582031 60.394531 C 6.582031 31.148438 30.375 7.375 59.601562 7.375 C 88.828125 7.375 112.621094 31.167969 112.621094 60.394531 C 112.621094 89.625 88.828125 113.414062 59.601562 113.414062 Z M 59.601562 113.414062 " fill-opacity="1" fill-rule="nonzero"/></g><path fill="#d5cebf" d="M 51.652344 15.34375 C 34.105469 15.34375 19.839844 29.605469 19.839844 47.152344 C 19.839844 64.703125 34.105469 78.964844 51.652344 78.964844 C 69.199219 78.964844 83.464844 64.683594 83.464844 47.136719 C 83.464844 29.605469 69.183594 15.34375 51.652344 15.34375 Z M 51.652344 73.65625 C 37.03125 73.65625 25.152344 61.757812 25.152344 47.152344 C 25.152344 32.53125 37.046875 20.652344 51.652344 20.652344 C 66.257812 20.652344 78.152344 32.546875 78.152344 47.152344 C 78.152344 61.757812 66.257812 73.65625 51.652344 73.65625 Z M 51.652344 73.65625 " fill-opacity="1" fill-rule="nonzero"/><path fill="#d5cebf" d="M 58.363281 44.246094 L 58.363281 44.085938 C 61.753906 42.382812 63.351562 39.472656 63.351562 36.496094 C 63.351562 32.316406 60.015625 27.652344 51.957031 27.652344 C 45.070312 27.652344 39.8125 31.527344 39.8125 37.355469 C 39.8125 40.371094 41.460938 43.1875 44.800781 44.894531 L 44.800781 45.054688 C 41.03125 46.707031 38.644531 49.558594 38.644531 53.703125 C 38.644531 58.367188 42.683594 63.300781 51.421875 63.300781 C 59.421875 63.300781 64.679688 59.121094 64.679688 52.859375 C 64.660156 48.390625 61.699219 45.519531 58.363281 44.246094 Z M 51.582031 33.121094 C 54.542969 33.121094 55.761719 35.238281 55.761719 37.355469 C 55.761719 39.527344 54.113281 41.234375 52.261719 41.753906 C 49.5 40.910156 47.382812 39.421875 47.382812 37.089844 C 47.382812 34.917969 48.820312 33.121094 51.582031 33.121094 Z M 51.726562 57.722656 C 48.710938 57.722656 46.789062 55.390625 46.84375 52.894531 C 46.84375 50.402344 48.386719 48.5 51.023438 47.746094 C 54.199219 48.589844 56.425781 50.402344 56.425781 53.414062 C 56.445312 55.855469 54.597656 57.722656 51.726562 57.722656 Z M 51.726562 57.722656 " fill-opacity="1" fill-rule="nonzero"/></svg>