<svg xmlns="http://www.w3.org/2000/svg" xmlns:xlink="http://www.w3.org/1999/xlink" width="160" zoomAndPan="magnify" viewBox="0 0 120 119.999999" height="160" preserveAspectRatio="xMidYMid meet" version="1.0"><defs><clipPath id="ccc53a0430"><path d="M 1.421875 1 L 116.921875 1 L 116.921875 118.75 L 1.421875 118.75 Z M 1.421875 1 " clip-rule="nonzero"/></clipPath></defs><g clip-path="url(#ccc53a0430)"><path fill="#d5cebf" d="M 58.761719 97.386719 C 66.449219 97.503906 73.011719 95.222656 79.148438 91.4375 C 82.226562 89.53125 84.957031 87.203125 87.519531 84.617188 C 91.445312 80.667969 93.632812 75.871094 94.621094 70.484375 C 95.207031 67.335938 95.492188 64.113281 95.300781 60.867188 C 95.089844 57.035156 94.902344 53.203125 94.363281 49.417969 C 93.726562 44.949219 92.597656 40.597656 90.953125 36.367188 C 89.328125 32.203125 87.847656 27.972656 86.296875 23.761719 C 85.613281 21.882812 85.074219 19.953125 84.746094 17.953125 C 84.601562 17.0625 84.273438 16.214844 84.132812 15.320312 C 84.015625 14.59375 83.992188 13.839844 84.039062 13.085938 C 84.132812 11.863281 84.839844 11.042969 85.945312 10.570312 C 87.964844 9.675781 90.011719 8.808594 92.035156 7.9375 C 95.46875 6.457031 98.875 4.949219 102.308594 3.492188 C 103.957031 2.789062 105.671875 2.175781 107.34375 1.542969 C 108.753906 1 109.976562 1.683594 110.398438 2.90625 C 110.679688 3.726562 111.128906 4.480469 111.480469 5.28125 C 113.054688 8.808594 114.609375 12.335938 116.160156 15.863281 C 116.230469 16.027344 116.324219 16.191406 116.371094 16.355469 C 116.652344 17.203125 116.253906 18.046875 115.429688 18.355469 C 113.433594 19.128906 111.457031 19.90625 109.457031 20.683594 C 109.058594 20.847656 108.636719 20.988281 108.257812 21.222656 C 107.367188 21.742188 106.894531 22.796875 107.105469 23.808594 C 107.199219 24.28125 107.390625 24.75 107.554688 25.195312 C 108.351562 27.148438 109.222656 29.078125 109.953125 31.050781 C 111.527344 35.378906 112.5625 39.824219 113.339844 44.363281 C 113.878906 47.535156 114.371094 50.710938 114.796875 53.910156 C 115.101562 56.261719 115.3125 58.609375 115.40625 60.984375 C 115.855469 71.613281 113.433594 81.5625 108.140625 90.800781 C 106.917969 92.964844 105.34375 94.871094 103.746094 96.773438 C 100.3125 100.890625 96.476562 104.582031 92.105469 107.6875 C 90.648438 108.722656 89.117188 109.707031 87.542969 110.578125 C 83.167969 113 78.675781 115.164062 73.855469 116.574219 C 69.578125 117.820312 65.203125 118.621094 60.734375 118.878906 C 57.679688 119.066406 54.667969 118.714844 51.660156 118.242188 C 48.460938 117.726562 45.285156 117.042969 42.230469 115.941406 C 37.691406 114.316406 33.339844 112.246094 29.179688 109.800781 C 28.121094 109.167969 27.085938 108.484375 26.074219 107.78125 C 21.539062 104.535156 17.632812 100.632812 14.011719 96.421875 C 10.179688 91.976562 7.546875 86.898438 5.664062 81.398438 C 3.621094 75.402344 2.539062 69.238281 2.632812 62.890625 C 2.65625 60.75 2.84375 58.609375 3.03125 56.496094 C 3.453125 51.746094 4.253906 47.042969 5.148438 42.363281 C 6.207031 37 7.617188 31.734375 9.921875 26.75 C 10.25 26.019531 10.554688 25.292969 10.839844 24.539062 C 11.425781 22.917969 10.863281 21.644531 9.261719 20.964844 C 8.722656 20.730469 8.15625 20.542969 7.59375 20.328125 C 5.921875 19.671875 4.230469 19.035156 2.5625 18.355469 C 1.761719 18.023438 1.457031 17.085938 1.832031 16.191406 C 2.300781 15.085938 2.820312 13.980469 3.3125 12.875 C 4.464844 10.242188 5.617188 7.609375 6.792969 4.949219 C 7.148438 4.128906 7.523438 3.304688 7.921875 2.503906 C 8.296875 1.777344 8.910156 1.375 9.734375 1.375 C 10.109375 1.375 10.507812 1.425781 10.863281 1.566406 C 15.09375 3.257812 19.375 4.832031 23.488281 6.761719 C 26.3125 8.078125 29.179688 9.277344 32.046875 10.5 C 33.414062 11.089844 34.117188 12.074219 34.140625 13.535156 C 34.164062 14.167969 34.117188 14.828125 33.976562 15.4375 C 33.648438 17.109375 33.316406 18.777344 32.847656 20.398438 C 32.214844 22.539062 31.484375 24.65625 30.730469 26.773438 C 29.25 30.886719 27.722656 34.980469 26.21875 39.09375 C 25.230469 41.75 24.570312 44.503906 24.171875 47.324219 C 23.84375 49.605469 23.511719 51.910156 23.324219 54.214844 C 23.019531 57.882812 22.691406 61.550781 22.949219 65.242188 C 23.230469 69.285156 23.84375 73.261719 25.535156 77.023438 C 26.757812 79.75 28.308594 82.21875 30.449219 84.359375 C 32.238281 86.148438 34.023438 87.933594 36.070312 89.414062 C 41.335938 93.25 47.074219 95.953125 53.539062 97.011719 C 55.421875 97.339844 57.28125 97.457031 58.761719 97.386719 Z M 28.945312 93.929688 C 28.945312 93.34375 28.6875 92.707031 28.261719 92.238281 C 27.980469 91.929688 27.699219 91.648438 27.367188 91.390625 C 25.746094 90.097656 23.324219 90.945312 22.832031 92.964844 C 22.359375 94.917969 24.054688 97.105469 26.050781 97.082031 C 26.382812 97.082031 26.710938 97.011719 27.015625 96.871094 C 28.050781 96.46875 28.945312 95.035156 28.945312 93.929688 Z M 95.46875 93.414062 C 95.398438 92.519531 94.902344 91.601562 93.820312 91.085938 C 92.738281 90.566406 91.726562 90.707031 90.789062 91.4375 C 90.503906 91.671875 90.246094 91.90625 90.011719 92.167969 C 89.257812 92.988281 89.046875 93.929688 89.496094 94.964844 C 89.964844 96.046875 90.648438 96.917969 91.917969 97.105469 C 92.058594 97.128906 92.222656 97.128906 92.386719 97.105469 C 94.03125 96.941406 95.46875 95.339844 95.46875 93.414062 Z M 14.269531 42.972656 C 13.167969 42.972656 12.226562 43.539062 11.945312 44.527344 C 11.753906 45.113281 11.660156 45.796875 11.707031 46.40625 C 11.824219 47.9375 13.355469 49.0625 14.8125 48.828125 C 16.433594 48.546875 17.539062 47.207031 17.398438 45.632812 C 17.257812 44.007812 15.988281 42.949219 14.269531 42.972656 Z M 101.015625 70.582031 C 100.992188 72.320312 102.496094 73.566406 104.191406 73.261719 C 105.90625 72.957031 107.082031 71.238281 106.707031 69.523438 C 106.425781 68.132812 105.273438 67.242188 103.910156 67.429688 C 102.355469 67.664062 101.015625 68.722656 101.015625 70.582031 Z M 14.34375 73.308594 C 15.800781 73.308594 16.859375 72.460938 17.140625 71.214844 C 17.585938 69.214844 15.824219 67.21875 13.777344 67.429688 C 13.070312 67.5 12.4375 67.757812 12.015625 68.394531 C 11.308594 69.429688 11.214844 70.507812 11.800781 71.613281 C 12.34375 72.695312 13.285156 73.261719 14.34375 73.308594 Z M 103.957031 42.972656 C 102.050781 42.949219 100.804688 44.171875 100.851562 46.007812 C 100.898438 47.511719 102.121094 48.734375 103.671875 48.851562 C 105.039062 48.945312 106.355469 47.839844 106.542969 46.382812 C 106.589844 45.960938 106.519531 45.515625 106.449219 45.089844 C 106.214844 43.75 105.296875 42.972656 103.957031 42.972656 Z M 103.957031 42.972656 " fill-opacity="1" fill-rule="nonzero"/></g></svg>