<svg xmlns="http://www.w3.org/2000/svg" xmlns:xlink="http://www.w3.org/1999/xlink" width="160" zoomAndPan="magnify" viewBox="0 0 120 119.999999" height="160" preserveAspectRatio="xMidYMid meet" version="1.0"><defs><clipPath id="6d2515ac38"><path d="M 6.4375 0 L 113.6875 0 L 113.6875 120 L 6.4375 120 Z M 6.4375 0 " clip-rule="nonzero"/></clipPath></defs><g clip-path="url(#6d2515ac38)"><path fill="#d5cebf" d="M 84.589844 98.277344 C 101.5625 89.945312 113.566406 72.429688 113.566406 51.78125 C 113.566406 23.039062 90.253906 0.0117188 61.816406 0.0273438 C 44.238281 0.0390625 28.3125 8.839844 18.824219 22.980469 L 17.707031 21.855469 C 16.515625 20.65625 14.488281 21.074219 13.859375 22.632812 L 7.070312 39.433594 C 6.445312 40.980469 7.589844 42.6875 9.300781 42.664062 L 10.875 42.632812 C 6.71875 65.925781 18.726562 88.300781 39.046875 98.277344 L 21.34375 115.980469 C 20.671875 116.652344 20.46875 117.664062 20.832031 118.542969 C 21.195312 119.421875 22.054688 119.996094 23.007812 119.996094 L 100.628906 119.996094 C 101.582031 119.996094 102.4375 119.421875 102.804688 118.542969 C 103.167969 117.664062 102.964844 116.652344 102.292969 115.980469 Z M 33.917969 38.175781 L 29.046875 33.269531 C 30.351562 30.957031 31.875 28.820312 33.585938 26.875 L 55.449219 48.738281 C 55.34375 48.960938 55.25 49.191406 55.164062 49.429688 L 24.261719 49.429688 C 24.410156 47.023438 24.78125 44.648438 25.382812 42.328125 L 32.300781 42.1875 C 33.242188 42.167969 34.078125 41.585938 34.429688 40.714844 C 34.785156 39.84375 34.582031 38.84375 33.917969 38.175781 Z M 68.46875 49.429688 C 68.386719 49.191406 68.292969 48.964844 68.183594 48.738281 L 90.027344 26.898438 C 95.40625 32.984375 98.84375 40.820312 99.378906 49.425781 L 68.46875 49.425781 Z M 99.378906 54.132812 C 98.84375 62.742188 95.402344 70.574219 90.027344 76.664062 L 68.183594 54.820312 C 68.292969 54.597656 68.386719 54.367188 68.46875 54.132812 Z M 64.859375 45.414062 C 64.636719 45.304688 64.40625 45.210938 64.171875 45.128906 L 64.171875 14.21875 C 72.78125 14.753906 80.613281 18.195312 86.703125 23.570312 Z M 64.859375 58.148438 L 86.703125 79.988281 C 80.613281 85.367188 72.78125 88.804688 64.171875 89.339844 L 64.171875 58.433594 C 64.40625 58.347656 64.636719 58.253906 64.859375 58.148438 Z M 61.816406 54.132812 C 60.519531 54.132812 59.464844 53.078125 59.464844 51.78125 C 59.464844 50.484375 60.519531 49.429688 61.816406 49.429688 C 63.113281 49.429688 64.171875 50.484375 64.171875 51.78125 C 64.171875 53.078125 63.113281 54.132812 61.816406 54.132812 Z M 59.464844 45.128906 C 59.230469 45.210938 59 45.304688 58.777344 45.414062 L 36.90625 23.539062 C 43.085938 18.070312 50.972656 14.742188 59.464844 14.21875 Z M 58.777344 58.148438 C 59 58.253906 59.230469 58.347656 59.464844 58.433594 L 59.464844 89.339844 C 50.855469 88.804688 43.023438 85.367188 36.933594 79.988281 Z M 33.609375 76.664062 C 28.230469 70.574219 24.792969 62.742188 24.257812 54.132812 L 55.164062 54.132812 C 55.25 54.367188 55.34375 54.597656 55.449219 54.820312 Z M 14.773438 51.78125 C 14.773438 48.660156 15.082031 45.558594 15.6875 42.53125 L 20.515625 42.429688 C 19.824219 45.484375 19.476562 48.617188 19.476562 51.78125 C 19.476562 75.105469 38.453125 94.121094 61.816406 94.121094 C 85.140625 94.121094 104.160156 75.144531 104.160156 51.78125 C 104.160156 28.460938 85.179688 9.441406 61.816406 9.441406 C 46.730469 9.441406 33.175781 17.378906 25.617188 29.820312 L 22.210938 26.390625 C 30.824219 12.988281 45.835938 4.734375 61.816406 4.734375 C 87.757812 4.734375 108.863281 25.839844 108.863281 51.78125 C 108.863281 77.722656 87.757812 98.824219 61.816406 98.824219 C 35.878906 98.824219 14.773438 77.71875 14.773438 51.78125 Z M 14.773438 51.78125 " fill-opacity="1" fill-rule="nonzero"/></g></svg>